<svg xmlns="http://www.w3.org/2000/svg" width="145.681" height="96.665" viewBox="0 0 145.681 96.665"><defs><style>.a{fill:#1d2228;}.b,.c{fill:#fb8122;}.c{opacity:0.8;}</style></defs><g transform="translate(-179 -893.065)"><path class="a" d="M40.823-25.484a.661.661,0,0,1-.139.418.944.944,0,0,1-.487.283,6.023,6.023,0,0,1-.922.179,11.2,11.2,0,0,1-1.409.075A11.462,11.462,0,0,1,36.4-24.6a6.032,6.032,0,0,1-.9-.179.944.944,0,0,1-.487-.283.661.661,0,0,1-.139-.418V-42.6H14.382v17.118a.661.661,0,0,1-.139.418.944.944,0,0,1-.487.283,6.023,6.023,0,0,1-.922.179,11.542,11.542,0,0,1-1.444.075A11.632,11.632,0,0,1,9.964-24.6a6.025,6.025,0,0,1-.939-.179.944.944,0,0,1-.487-.283A.661.661,0,0,1,8.4-25.48V-62.522a.661.661,0,0,1,.139-.418.944.944,0,0,1,.487-.283,6.026,6.026,0,0,1,.939-.179,11.631,11.631,0,0,1,1.426-.075,11.542,11.542,0,0,1,1.444.075,6.025,6.025,0,0,1,.922.179.944.944,0,0,1,.487.283.661.661,0,0,1,.139.418v15.448H34.873V-62.522a.661.661,0,0,1,.139-.418.944.944,0,0,1,.487-.283,6.032,6.032,0,0,1,.9-.179,11.461,11.461,0,0,1,1.461-.075,11.2,11.2,0,0,1,1.409.075,6.024,6.024,0,0,1,.922.179.944.944,0,0,1,.487.283.661.661,0,0,1,.139.418Zm17.952,0a.661.661,0,0,1-.139.418.944.944,0,0,1-.487.283,6.023,6.023,0,0,1-.922.179,11.543,11.543,0,0,1-1.444.075,11.63,11.63,0,0,1-1.426-.075,6.025,6.025,0,0,1-.939-.179.944.944,0,0,1-.487-.283.661.661,0,0,1-.139-.418V-62.522a.614.614,0,0,1,.157-.418,1.072,1.072,0,0,1,.522-.283,6.624,6.624,0,0,1,.939-.179,10.862,10.862,0,0,1,1.374-.075,11.543,11.543,0,0,1,1.444.075,6.024,6.024,0,0,1,.922.179.944.944,0,0,1,.487.283.661.661,0,0,1,.139.418Zm41.991,0a.814.814,0,0,1-.1.418.8.8,0,0,1-.452.3,4.436,4.436,0,0,1-.974.179q-.626.06-1.67.06-.9,0-1.479-.06a3.685,3.685,0,0,1-.922-.194,1.247,1.247,0,0,1-.539-.373,2.252,2.252,0,0,1-.331-.6l-4.14-9.1A31.5,31.5,0,0,0,88.641-37.7a9.334,9.334,0,0,0-1.861-2.237A7.832,7.832,0,0,0,84.24-41.4a10.484,10.484,0,0,0-3.514-.522h-4v16.432a.614.614,0,0,1-.157.418,1.054,1.054,0,0,1-.487.283,5.477,5.477,0,0,1-.9.179,11.543,11.543,0,0,1-1.444.075A11.542,11.542,0,0,1,72.29-24.6a6.023,6.023,0,0,1-.922-.179.944.944,0,0,1-.487-.283.661.661,0,0,1-.139-.418V-61.21a1.787,1.787,0,0,1,.713-1.625,2.736,2.736,0,0,1,1.513-.462h9.567q1.7,0,2.835.075t2.035.164a19.351,19.351,0,0,1,4.61,1.223,10.989,10.989,0,0,1,3.357,2.117,8.389,8.389,0,0,1,2.035,2.937,9.545,9.545,0,0,1,.678,3.653,9.364,9.364,0,0,1-.609,3.474,8.156,8.156,0,0,1-1.757,2.714,11.309,11.309,0,0,1-2.747,2.04,19.08,19.08,0,0,1-3.583,1.461,8.834,8.834,0,0,1,2.018,1.059,9.693,9.693,0,0,1,1.687,1.536,14.139,14.139,0,0,1,1.479,2.058q.7,1.163,1.392,2.624l4.036,8.5q.487,1.074.626,1.506a2.375,2.375,0,0,1,.138.672ZM91.755-52.592a6.173,6.173,0,0,0-1.183-3.832,6.812,6.812,0,0,0-3.966-2.252,13,13,0,0,0-1.966-.3q-1.1-.089-2.87-.089H76.726v13H82.57a14.987,14.987,0,0,0,4.088-.492,8.52,8.52,0,0,0,2.87-1.372A5.412,5.412,0,0,0,91.216-50a6.224,6.224,0,0,0,.539-2.592Zm42.722,25.766a5.578,5.578,0,0,1-.07.939,1.781,1.781,0,0,1-.244.671,1.1,1.1,0,0,1-.4.388,1.064,1.064,0,0,1-.5.119h-21.6a2.736,2.736,0,0,1-1.513-.462,1.787,1.787,0,0,1-.713-1.625V-61.21a1.787,1.787,0,0,1,.713-1.625,2.736,2.736,0,0,1,1.513-.462h21.361a1.064,1.064,0,0,1,.5.119.876.876,0,0,1,.365.388,2.712,2.712,0,0,1,.226.671,4.832,4.832,0,0,1,.087,1,4.489,4.489,0,0,1-.087.939,2.453,2.453,0,0,1-.226.656.891.891,0,0,1-.365.373,1.064,1.064,0,0,1-.5.119h-17.6v12.108h15.1a.97.97,0,0,1,.5.134,1.172,1.172,0,0,1,.383.373,1.714,1.714,0,0,1,.226.656,6.067,6.067,0,0,1,.07.984,5.313,5.313,0,0,1-.07.924,1.679,1.679,0,0,1-.226.626.919.919,0,0,1-.383.343,1.19,1.19,0,0,1-.5.1h-15.1v13.808h17.847a1.064,1.064,0,0,1,.5.119,1.132,1.132,0,0,1,.4.373,1.645,1.645,0,0,1,.244.656,6,6,0,0,1,.062,1Z" transform="translate(180.601 956.543)"/><g transform="translate(0.08)"><g transform="translate(179.301 930.015)"><path class="b" d="M12.937.7c4.651-.208,8.252,2.963,8.045,7.083L19.009,46.938c-.208,4.119-4.146,7.627-8.8,7.834S1.96,51.809,2.168,47.69L4.141,8.533C4.348,4.414,8.287.906,12.937.7Z" transform="translate(15.412 1.084) rotate(19)"/><path class="b" d="M7.773-.35c4.651.208,8.589,3.715,8.8,7.834l1.973,39.157c.208,4.119-3.394,7.29-8.045,7.083S1.912,50.009,1.7,45.89L-.271,6.733C-.479,2.613,3.123-.558,7.773-.35Z" transform="translate(46.312 8.818) rotate(-19)"/><path class="c" d="M7.386-.427c4.564.286,8.5,3.927,8.781,8.134l1.941,28.56c.286,4.206-3.182,7.384-7.745,7.1S1.868,39.44,1.582,35.233L-.359,6.671C-.645,2.465,2.823-.713,7.386-.427Z" transform="translate(50.912 40.133) rotate(151.001)"/><path class="c" d="M13.153.975c4.564-.286,8.031,2.892,7.745,7.1l-1.941,28.56c-.286,4.206-4.217,7.848-8.781,8.134s-8.031-2.892-7.745-7.1L4.372,9.109C4.658,4.9,8.589,1.261,13.153.975Z" transform="translate(48.243 51.317) rotate(-151.001)"/></g><g transform="translate(261.811 986.497) rotate(-90)"><rect class="b" width="15" height="63" rx="7.5" transform="translate(0 -0.21)"/><rect class="b" width="15" height="63" rx="7.5" transform="translate(35 -0.21)"/><rect class="c" width="14.658" height="49.162" rx="7.329" transform="translate(18.032 0.457)"/></g></g></g></svg>